<svg width="43" height="42" viewBox="0 0 43 42" fill="none" xmlns="http://www.w3.org/2000/svg">
<g id="Mask group">
<mask id="mask0_811_76075" style="mask-type:alpha" maskUnits="userSpaceOnUse" x="0" y="0" width="43" height="42">
<circle id="Ellipse 16" cx="21.1055" cy="21" r="21" fill="#D9D9D9" fill-opacity="0.75"/>
</mask>
<g mask="url(#mask0_811_76075)">
<g id="Group">
<g id="Group_2">
<path id="Vector" d="M35.2107 27.5566C35.0244 27.4423 34.8349 27.3013 34.647 27.1385C34.6157 27.1228 34.0739 26.8613 33.6558 26.902C33.4522 26.9208 33.2784 27.0116 33.2079 27.2371C32.9871 27.9387 34.1459 29.3903 32.8571 29.1272C33.9408 29.5046 34.8991 29.965 35.7745 30.3251C37.1384 30.8857 38.4209 30.3659 38.4209 29.4028C38.4209 28.4398 36.9771 28.6402 35.2123 27.5581L35.2107 27.5566Z" fill="#EDB08E"/>
<path id="Vector_2" d="M27.2192 10.1996C26.4347 9.48865 25.5562 9.51683 25.0786 9.97878C26.2765 10.7758 27.3069 11.7138 28.0726 12.4905C28.082 11.9628 27.9928 10.898 27.2208 10.198L27.2192 10.1996Z" fill="#EDB08E"/>
<path id="Vector_3" d="M26.4567 20.9686C26.427 20.9686 26.3988 20.9686 26.3706 20.9718C25.6471 21.0187 25.4389 21.5308 25.3762 21.9019C25.4467 21.9787 25.5406 22.0695 25.6612 22.1587C25.716 21.9019 25.8272 21.5465 26.0323 21.4353C26.037 21.4321 26.0402 21.4306 26.0449 21.429C26.0605 21.5856 26.095 21.8033 26.1701 21.9395C26.1701 21.9395 26.1842 21.6107 26.2531 21.3617C26.6258 21.2928 27.1238 21.4588 26.6509 22.5377C26.7683 22.5502 26.8936 22.5549 27.0283 22.5471C27.3101 22.0194 27.39 20.9577 26.4567 20.9702V20.9686Z" fill="#FAFAFB"/>
<path id="Vector_4" d="M20.1315 17.0395C17.5352 15.779 18.1114 13.3893 19.5286 13.2171C20.7861 13.0636 21.7522 14.7126 22.0451 15.3765C22.1641 15.3421 22.2894 15.3154 22.4209 15.2982C22.2659 14.7783 21.5565 12.9196 19.3595 12.8162C16.8023 12.6956 16.7428 16.4257 19.9013 17.5391C19.9013 17.5391 19.9733 17.3308 20.1331 17.0411L20.1315 17.0395Z" fill="#EDB08E"/>
<path id="Vector_5" d="M18.4868 27.5157C18.4742 27.5235 18.4602 27.5298 18.4476 27.536C18.5478 28.0873 18.6449 28.9689 18.457 29.7659C18.3239 30.3344 18.5933 30.8261 19.0004 31.1925C19.24 31.4086 19.5281 31.5824 19.8084 31.7014C19.882 31.5229 20.0104 31.4665 20.0104 31.4665C20.333 31.4164 20.5241 31.6075 20.6368 31.894C20.773 31.8878 20.9531 31.8596 21.1567 31.8111C21.0831 31.2739 21.3994 31.1361 21.3994 31.1361C21.7001 31.0892 21.888 31.252 22.0039 31.5073C22.1229 31.4493 22.2388 31.3851 22.3499 31.3131C22.2231 30.9936 22.3124 30.7415 22.6381 30.7055C22.7446 30.693 22.8401 30.7259 22.9246 30.7869C22.9528 30.7478 22.9794 30.7086 23.0029 30.6679C22.6647 29.7957 21.3039 28.4725 21.0455 27.5517C19.68 27.8993 19.4984 26.9723 18.4868 27.5157Z" fill="#EDB08E"/>
<path id="Vector_6" d="M9.99805 30.7321C9.41395 30.4455 8.40862 30.2733 7.55675 29.9209C6.49818 29.4841 6.28365 28.6776 6.22258 28.2391C6.02214 28.3253 5.76063 28.33 5.45057 28.3394C4.94634 28.3534 4.5392 28.8467 4.09604 29.0425C4.03183 29.7283 4.08821 30.7822 4.73964 31.4571C5.20785 31.9426 5.91565 32.3842 6.70019 32.5736C6.7503 32.3685 6.92255 32.273 7.15588 32.3685C7.28898 32.4233 7.38293 32.5329 7.45027 32.6723C7.68516 32.677 7.92318 32.6535 8.15964 32.6003C8.05159 32.3121 8.13458 32.0725 8.39923 32.1242C8.54956 32.154 8.69049 32.2417 8.81733 32.3607C8.93321 32.3012 9.04909 32.2323 9.16184 32.154C8.99585 31.941 9.05535 31.7171 9.52357 31.7061C9.57055 31.7061 9.61909 31.7061 9.66607 31.7108C9.78508 31.573 9.87277 31.4336 9.93228 31.2974C9.50948 31.3256 9.21351 31.2974 9.54236 30.9435C9.65511 30.8229 9.81483 30.7587 9.99805 30.7321Z" fill="#EDB08E"/>
</g>
<g id="Group_3">
<path id="Vector_7" d="M27.0479 20.2966C27.0479 20.2966 27.0369 19.8472 26.2805 19.8816C25.6996 19.9083 25.4678 20.3906 25.4757 20.7241C26.0206 19.9208 27.0479 20.2966 27.0479 20.2966Z" fill="#322011"/>
<path id="Vector_8" d="M26.2547 21.3597C26.1858 21.6087 26.1717 21.9375 26.1717 21.9375C26.0966 21.8013 26.0621 21.5836 26.0465 21.427C26.0418 21.4302 26.0386 21.4317 26.0339 21.4333C25.8288 21.5445 25.7176 21.8984 25.6628 22.1568C25.893 22.3259 26.2187 22.4887 26.6525 22.5357C27.1254 21.4568 26.6274 21.2908 26.2547 21.3597Z" fill="black"/>
<path id="Vector_9" d="M24.3111 24.5292C24.0731 24.1894 23.8695 23.8277 23.7066 23.4456C23.8319 23.3736 23.9478 23.2624 24.0245 23.1168C23.8757 23.181 23.7411 23.217 23.6205 23.2311C23.5782 23.2358 23.5375 23.2389 23.4984 23.2389C23.0599 23.2436 22.8344 22.9696 22.8172 22.9476C22.8234 22.9711 22.9315 23.3501 23.2384 23.502C23.3167 23.5411 23.4169 23.5458 23.5234 23.5192C23.5798 23.8371 23.7379 24.2129 23.9697 24.6028C24.4912 25.4829 25.3931 26.4428 26.3828 27.0112C27.421 27.6079 28.2478 27.8287 28.7881 27.9054C27.2237 27.2305 25.4135 26.1014 24.3126 24.5261L24.3111 24.5292Z" fill="#322011"/>
<path id="Vector_10" d="M22.9227 30.7852C22.8381 30.7226 22.7426 30.6912 22.6361 30.7038C22.3119 30.7398 22.2211 30.9903 22.348 31.3114C22.4043 31.4554 22.5046 31.612 22.6471 31.7717C22.8569 32.0066 23.1591 32.2415 23.5459 32.4373C23.5099 32.1664 23.3768 31.3474 23.0699 30.9402C23.0244 30.8792 22.9743 30.8275 22.9211 30.7883L22.9227 30.7852Z" fill="#322011"/>
<path id="Vector_11" d="M22.0033 31.5054C21.8874 31.2502 21.6995 31.0873 21.3989 31.1343C21.3989 31.1343 21.0825 31.2721 21.1561 31.8092C21.1687 31.8985 21.1922 31.9987 21.2282 32.1099C21.2376 32.138 21.247 32.1662 21.2595 32.1976C21.5805 33.0604 22.1411 33.2593 22.1411 33.2593C22.1411 33.2593 22.2272 32.5655 22.1317 31.9689C22.1051 31.7998 22.0644 31.6385 22.0033 31.5038V31.5054Z" fill="#322011"/>
<path id="Vector_12" d="M20.6374 31.8923C20.5247 31.6057 20.332 31.4147 20.011 31.4648C20.011 31.4648 19.8826 31.5211 19.809 31.6997C19.762 31.8108 19.737 31.969 19.7761 32.1898C19.7934 32.2885 19.8247 32.4012 19.8717 32.528C20.1927 33.3909 20.7548 33.5897 20.7548 33.5897C20.7548 33.5897 20.8551 32.7723 20.7173 32.1506C20.6969 32.0598 20.6719 31.9721 20.6405 31.8923H20.6374Z" fill="#322011"/>
<path id="Vector_13" d="M18.8443 31.2062C18.5812 30.9886 18.2869 31.2611 18.1819 31.6839C18.1506 31.8076 18.1365 31.9454 18.1444 32.0863C18.1851 32.8286 18.5859 33.2592 18.5859 33.2592C18.5859 33.2592 19.0119 32.6923 19.1027 32.0988C19.1372 31.878 19.1246 31.6557 19.0275 31.4568C18.9712 31.3409 18.9085 31.2595 18.8443 31.2047V31.2062Z" fill="#322011"/>
<path id="Vector_14" d="M10.0396 30.7271C10.0255 30.7287 10.0114 30.7303 9.99731 30.7318C9.81253 30.7584 9.65437 30.8227 9.54162 30.9432C9.21278 31.2956 9.50874 31.3253 9.93154 31.2971C10.1054 31.2862 10.3027 31.2642 10.4859 31.2517C10.6174 31.2423 10.7411 31.2392 10.8445 31.2455C11.4458 31.2862 11.8467 31.1296 11.8467 31.1296C11.8467 31.1296 10.7724 30.6457 10.0396 30.7271Z" fill="#322011"/>
<path id="Vector_15" d="M9.66437 31.7107C9.61739 31.706 9.56885 31.7045 9.52187 31.706C9.05365 31.717 8.99415 31.9425 9.16014 32.1539C9.24783 32.2666 9.40129 32.3763 9.59077 32.4483C9.68629 32.4843 9.79121 32.5109 9.90239 32.5235C10.2297 32.561 10.7026 32.5313 11.127 32.4859C11.0158 32.3778 10.6728 32.0662 10.2422 31.8705C10.0621 31.789 9.86638 31.728 9.66437 31.7092V31.7107Z" fill="#322011"/>
<path id="Vector_16" d="M8.8153 32.3604C8.68846 32.2414 8.54752 32.1537 8.39719 32.1239C8.13255 32.0707 8.04955 32.3103 8.1576 32.5999C8.20302 32.7221 8.28445 32.8552 8.39876 32.9758C8.62582 33.2154 8.99068 33.4158 9.49805 33.433C9.42445 33.2608 9.28978 32.9726 9.10969 32.7111C9.022 32.5827 8.92335 32.4606 8.8153 32.3604Z" fill="#322011"/>
<path id="Vector_17" d="M7.44852 32.6722C7.38118 32.5329 7.28723 32.4233 7.15412 32.3684C6.9208 32.2745 6.74855 32.3684 6.69844 32.5736C6.66085 32.7255 6.6906 32.9384 6.81431 33.178C6.94742 33.4364 7.1917 33.7261 7.57849 34.0001C7.59728 33.7966 7.61607 33.4615 7.57536 33.1451C7.55343 32.9745 7.51429 32.8085 7.44852 32.6707V32.6722Z" fill="#322011"/>
<path id="Vector_18" d="M-0.854159 25.0208C-0.974735 25.0052 -1.09375 25.013 -1.20806 25.049C-1.54944 25.1602 -1.43199 25.4483 -1.07026 25.6488C-0.948115 25.7161 -0.797785 25.7741 -0.627098 25.8101C-0.326439 25.8743 0.038423 25.8758 0.418945 25.7553C0.248258 25.5924 -0.130697 25.2636 -0.539406 25.1038C-0.642758 25.0631 -0.749241 25.0334 -0.854159 25.0208Z" fill="#754B2A"/>
</g>
<g id="Group_4">
<path id="Vector_19" d="M32.8541 29.1237H32.8525C32.2497 28.9123 31.6076 28.7275 30.9186 28.5976C30.5584 28.5302 30.109 28.4081 29.6095 28.2311C29.6095 28.2311 28.2612 28.5475 27.1181 28.0965C26.1237 27.7034 23.9674 26.6057 22.8697 24.7814C22.6834 24.8017 22.4923 24.8205 22.2981 24.8331C20.6617 24.9364 18.792 24.6937 17.0413 23.6257C15.3423 22.5875 14.2116 21.0811 13.5054 19.4603C12.3294 16.7591 12.3294 13.7384 12.8305 12.0347C12.9573 11.604 13.1703 11.1906 13.4569 10.8085C13.8452 10.2871 14.3682 9.82044 14.9883 9.42896C18.6652 10.2135 22.284 10.1211 24.5421 11.0685C27.3091 12.2288 28.7138 13.6789 30.1168 19.6937C31.1269 24.0235 32.7398 26.0467 33.6543 26.8985C33.4507 26.9173 33.2769 27.0081 33.2064 27.2336C32.9856 27.9352 34.1444 29.3868 32.8557 29.1237H32.8541ZM25.4754 20.7225C26.0204 19.9192 27.0476 20.295 27.0476 20.295C27.0476 20.295 27.0367 19.8456 26.2803 19.88C25.6993 19.9066 25.4676 20.3889 25.4754 20.7225ZM25.3752 21.9016C25.4457 21.9784 25.5396 22.0692 25.6602 22.1584C25.8904 22.3276 26.2161 22.4904 26.6499 22.5374C26.7673 22.5499 26.8926 22.5546 27.0273 22.5468C27.3091 22.0191 27.389 20.9574 26.4557 20.9699C26.4259 20.9699 26.3978 20.9699 26.3696 20.973C25.6461 21.02 25.4378 21.5321 25.3752 21.9032V21.9016ZM22.4187 15.2981C22.2637 14.7782 21.5543 12.9194 19.3573 12.8161C16.8001 12.6955 16.7406 16.4256 19.8991 17.5389C19.8991 17.5389 19.9712 17.3307 20.1309 17.041C20.4284 16.4976 21.0329 15.6676 22.0445 15.3779C22.1635 15.3435 22.2887 15.3169 22.4203 15.2996L22.4187 15.2981ZM28.7858 27.9086C27.2214 27.2336 25.4112 26.1046 24.3104 24.5293C24.0723 24.1895 23.8688 23.8277 23.7059 23.4456C23.8312 23.3736 23.9471 23.2624 24.0238 23.1168C23.875 23.181 23.7404 23.217 23.6198 23.2311C23.5775 23.2358 23.5368 23.2389 23.4976 23.2389C23.0592 23.2436 22.8337 22.9696 22.8165 22.9477C22.8227 22.9712 22.9308 23.3501 23.2377 23.502C23.316 23.5412 23.4162 23.5459 23.5227 23.5192C23.5791 23.8371 23.7372 24.213 23.969 24.6029C24.4904 25.4829 25.3924 26.4428 26.3821 27.0113C27.4203 27.6079 28.2471 27.8287 28.7874 27.9054L28.7858 27.9086Z" fill="#D69E62"/>
<path id="Vector_20" d="M22.9225 30.7853C22.9773 30.8244 23.0259 30.8761 23.0713 30.9372C23.0619 30.8526 23.0368 30.7633 22.9993 30.6663C22.9758 30.707 22.9491 30.7461 22.921 30.7853H22.9225Z" fill="#D69E62"/>
<path id="Vector_21" d="M22.0033 31.5054C22.0643 31.6401 22.1051 31.8014 22.1317 31.9705C22.3337 31.9204 22.5075 31.8546 22.6484 31.7701C22.5059 31.6119 22.4057 31.4538 22.3493 31.3097C22.2382 31.3817 22.1223 31.4475 22.0033 31.5039V31.5054Z" fill="#D69E62"/>
<path id="Vector_22" d="M20.6366 31.8924C20.6679 31.9723 20.693 32.06 20.7133 32.1508C20.8934 32.1383 21.0657 32.1258 21.2285 32.1101C21.1925 31.9989 21.169 31.8987 21.1565 31.8094C20.9545 31.858 20.7728 31.8862 20.6366 31.8924Z" fill="#D69E62"/>
<path id="Vector_23" d="M18.999 31.1922C18.5919 30.8258 18.321 30.3357 18.4556 29.7657C18.642 28.9686 18.5464 28.0885 18.4462 27.5358C18.2975 27.6125 18.1565 27.6657 18.0219 27.6986C18.014 28.314 17.9436 29.2285 17.6241 29.941C17.3329 30.5909 17.5881 31.2486 18.1832 31.6839C18.2865 31.2596 18.5809 30.9871 18.8455 31.2063C18.9097 31.2596 18.9708 31.341 19.0288 31.4584C19.1274 31.6573 19.1384 31.8812 19.1039 32.1005C19.3138 32.1521 19.5377 32.1835 19.7757 32.1913C19.7366 31.9705 19.7632 31.8123 19.8086 31.7012C19.5283 31.5821 19.2402 31.4083 19.0006 31.1922H18.999Z" fill="#D69E62"/>
<path id="Vector_24" d="M11.5947 20.0851C8.92949 21.4099 7.31814 24.2489 6.81861 25.9072C8.10737 24.3789 9.66078 24.3867 11.7466 24.3068C13.8324 24.227 15.8368 26.2314 16.2784 26.8734C16.3927 27.0394 16.5258 27.1991 16.6777 27.3354C16.6214 27.2712 15.7178 26.2236 15.7178 25.1023C15.7178 23.9811 14.0172 19.3099 11.5947 20.0851Z" fill="#D69E62"/>
<path id="Vector_25" d="M9.93021 31.2974C9.87071 31.4352 9.78302 31.573 9.66401 31.7108C9.86444 31.728 10.0618 31.7891 10.2418 31.8721C10.2779 31.8251 10.3123 31.7765 10.3436 31.7264C10.4595 31.5417 10.5018 31.3866 10.4861 31.252C10.3029 31.2645 10.1056 31.2864 9.93178 31.2974H9.93021Z" fill="#D69E62"/>
<path id="Vector_26" d="M9.16019 32.1554C9.04744 32.2337 8.93156 32.3026 8.81568 32.3621C8.92373 32.4623 9.02238 32.5845 9.11008 32.7129C9.2792 32.6346 9.44049 32.5469 9.59082 32.4498C9.40134 32.3778 9.24945 32.2681 9.16019 32.1554Z" fill="#D69E62"/>
<path id="Vector_27" d="M7.44889 32.6723C7.51466 32.8101 7.55381 32.9745 7.57573 33.1467C7.85134 33.1123 8.12851 33.0543 8.39941 32.976C8.28353 32.8539 8.20367 32.7224 8.15826 32.6002C7.9218 32.6535 7.68535 32.677 7.44889 32.6723Z" fill="#D69E62"/>
<path id="Vector_28" d="M6.69819 32.5735C5.91365 32.3841 5.20428 31.9425 4.73764 31.457C4.08777 30.7821 4.0314 29.7282 4.09404 29.0424C3.8889 29.1347 3.67593 29.1614 3.44261 29.0486C2.95247 31.2644 4.76739 32.6534 6.02953 33.0496C6.26599 33.1248 6.5322 33.1655 6.8125 33.178C6.68879 32.9384 6.65904 32.7254 6.69662 32.5735H6.69819Z" fill="#D69E62"/>
<path id="Vector_29" d="M3.53906 13.8588C-0.0751162 17.033 -5.70152 12.2334 -5.70152 12.2334C-4.37831 13.5566 -2.93451 14.9205 -2.48353 18.6663C-2.03254 22.412 -5.0313 22.3071 -5.0313 22.3071C-3.3213 22.8238 -1.27306 23.0446 1.18076 22.9099C0.994418 21.5335 0.928647 20.0145 1.07584 18.4517C1.25906 16.4974 2.30824 14.9847 3.5375 13.8604L3.53906 13.8588Z" fill="#D69E62"/>
</g>
<g id="Group_5">
<path id="Vector_30" d="M31.3206 19.4935C31.1202 15.8433 29.5151 14.0785 29.5151 14.0785C29.4681 14.0471 28.9404 13.3722 28.0713 12.4906C27.3056 11.7123 26.2752 10.7743 25.0772 9.97884C24.1314 9.34933 23.0807 8.80752 21.9751 8.50372C21.355 8.33304 20.7286 8.23282 20.1132 8.19523C20.1132 8.19523 19.9817 8.19524 19.7468 8.17958C18.6694 8.11224 15.4123 7.73955 12.5137 5.71636C8.98099 3.25001 0.798977 1.38498 -5.45694 4.27257C-10.0921 6.41163 -11.9524 11.3569 -11.5797 15.1699L-11.6267 15.1746C-11.6267 15.1746 -13.8096 19.1067 -22.6525 20.5505C-25.3694 20.9936 -27.7715 21.5793 -29.8276 22.2761C-29.862 22.2871 -29.8965 22.2996 -29.9294 22.3106C-29.9372 22.3137 -29.9435 22.3153 -29.9497 22.3184C-30.5495 22.5392 -30.9911 22.9354 -30.9989 23.2063C-27.6133 21.8189 -19.53 20.693 -15.9252 19.8787C-13.5591 19.3447 -12.0652 18.153 -11.1632 17.1023C-10.9659 17.6582 -10.7075 18.1608 -10.3912 18.5915C-10.2565 18.7763 -10.114 18.9548 -9.96683 19.1286C-9.32479 19.8896 -8.57314 20.5567 -7.69152 21.1111C-7.57408 21.1847 -7.4535 21.2567 -7.33136 21.3272C-6.64078 21.7218 -5.87661 22.0522 -5.02787 22.3074C-5.02787 22.3074 -2.0291 22.4124 -2.48009 18.6666C-2.93108 14.9209 -4.37487 13.557 -5.69809 12.2338C-5.69809 12.2338 -0.0732498 17.0334 3.5425 13.8592C2.31324 14.9836 1.26406 16.4963 1.08084 18.4505C0.933647 20.0133 0.999416 21.5339 1.18576 22.9088C1.60857 26.05 2.66087 28.4428 3.24653 28.9188C3.31544 28.9736 3.3812 29.0175 3.44697 29.0488C3.6803 29.1631 3.89326 29.1349 4.0984 29.0425C4.54156 28.8468 4.95027 28.3535 5.45294 28.3394C5.76143 28.3316 6.0245 28.3253 6.22494 28.2392C6.54439 28.1014 6.70568 27.76 6.65714 26.8737C6.64461 26.6498 6.69942 26.3131 6.82313 25.9075C7.32266 24.2492 8.93401 21.4102 11.5992 20.0854C14.0217 19.3102 15.7223 24.0143 15.7223 25.1026C15.7223 26.191 16.6259 27.2715 16.6823 27.3357C16.6838 27.3372 16.6854 27.3388 16.6854 27.3388C17.0299 27.6473 17.4746 27.8368 18.0258 27.699C18.1605 27.6645 18.303 27.6113 18.4502 27.5361C18.4627 27.5298 18.4768 27.522 18.4893 27.5157C19.5009 26.9708 19.6826 27.8994 21.0481 27.5518C21.0904 27.5408 21.1326 27.5298 21.1781 27.5157C22.2523 27.1963 22.3384 25.6585 22.304 24.8333C20.6676 24.9367 18.7978 24.6939 17.0471 23.626C15.3481 22.5877 14.2175 21.0813 13.5112 19.4606C12.3352 16.7593 12.3352 13.7386 12.8363 12.0349C12.9632 11.6043 13.1761 11.1909 13.4627 10.8088C13.851 10.2873 14.3741 9.82068 14.9942 9.42919C18.671 10.2137 22.2899 10.1213 24.548 11.0687C27.315 12.2291 28.7196 13.6791 30.1227 19.6939C31.1327 24.0237 32.7456 26.0469 33.6601 26.8988C34.0782 26.8596 34.62 27.1196 34.6514 27.1352C33.0619 25.7603 31.5054 22.7553 31.3269 19.4919L31.3206 19.4935Z" fill="#AB5100"/>
<path id="Vector_31" d="M19.5294 13.2173C18.1107 13.3896 17.536 15.7792 20.1323 17.0397C20.4299 16.4964 21.0343 15.6664 22.0459 15.3767C21.7531 14.7128 20.7869 13.0638 19.5294 13.2173Z" fill="#AB5100"/>
</g>
</g>
</g>
</g>
</svg>
